<svg xmlns="http://www.w3.org/2000/svg" viewBox="0 0 200 240" fill="none">
  <defs>
    <linearGradient id="toothGrad" x1="0%" y1="0%" x2="100%" y2="100%">
      <stop offset="0%" style="stop-color:#00bfa5;stop-opacity:1" />
      <stop offset="100%" style="stop-color:#1a5ea8;stop-opacity:1" />
    </linearGradient>
  </defs>
  <path d="M100 10C65 10 40 30 30 55C20 80 25 105 35 125C45 145 50 170 55 195C58 210 65 230 75 230C85 230 88 210 92 195C96 180 98 170 100 170C102 170 104 180 108 195C112 210 115 230 125 230C135 230 142 210 145 195C150 170 155 145 165 125C175 105 180 80 170 55C160 30 135 10 100 10Z" fill="url(#toothGrad)" opacity="0.9"/>
  <path d="M100 10C65 10 40 30 30 55C20 80 25 105 35 125C45 145 50 170 55 195C58 210 65 230 75 230C85 230 88 210 92 195C96 180 98 170 100 170C102 170 104 180 108 195C112 210 115 230 125 230C135 230 142 210 145 195C150 170 155 145 165 125C175 105 180 80 170 55C160 30 135 10 100 10Z" fill="none" stroke="#1a5ea8" stroke-width="3" opacity="0.3"/>
  <ellipse cx="100" cy="65" rx="30" ry="8" fill="white" opacity="0.3"/>
</svg>
